<?xml version="1.0" standalone="no"?>
<!DOCTYPE svg PUBLIC "-//W3C//DTD SVG 20010904//EN"
 "http://www.w3.org/TR/2001/REC-SVG-20010904/DTD/svg10.dtd">
<svg version="1.0" xmlns="http://www.w3.org/2000/svg"
 width="512.000000pt" height="512.000000pt" viewBox="0 0 512.000000 512.000000"
 preserveAspectRatio="xMidYMid meet">
<metadata>
Created by potrace 1.11, written by Peter Selinger 2001-2013
</metadata>
<g transform="translate(0.000000,512.000000) scale(0.100000,-0.100000)"
fill="#000000" stroke="none">
<path d="M0 4235 c0 -487 2 -885 4 -885 2 0 210 305 462 679 l459 679 3 -1884
2 -1884 1833 -1 c1007 -1 1825 -3 1817 -5 -8 -2 -1032 -119 -2275 -259 -1243
-141 -2270 -258 -2282 -261 -23 -4 -23 -5 -23 -209 l0 -205 2560 0 2560 0 0
2560 0 2560 -2560 0 -2560 0 0 -885z m1622 -108 l87 -202 1 203 0 202 80 0 80
0 0 -345 0 -346 -101 3 -102 3 -89 200 -89 200 5 -202 6 -203 -85 0 -85 0 0
345 0 345 103 0 102 0 87 -203z m1608 88 l0 -65 50 0 50 0 0 -60 0 -60 -50 0
-50 0 0 -107 c0 -134 10 -158 63 -157 l37 1 0 -63 c0 -68 2 -65 -67 -79 -51
-10 -136 12 -166 43 -35 37 -46 95 -47 240 l0 122 -35 0 -35 0 0 60 0 60 35 0
35 0 0 58 c0 32 3 62 7 65 3 4 44 7 90 7 l83 0 0 -65z m-901 -78 c56 -37 89
-107 97 -210 l7 -77 -152 0 -152 0 6 -22 c21 -67 87 -89 124 -42 l21 27 63
-28 c34 -15 66 -31 71 -36 16 -14 -84 -105 -129 -118 -181 -50 -326 60 -329
249 -1 96 17 158 62 211 52 61 100 80 193 77 63 -3 82 -8 118 -31z m341 -52
l33 -76 32 73 32 73 97 3 c53 1 96 -1 96 -6 0 -5 -29 -62 -65 -127 l-65 -117
68 -126 c37 -70 69 -130 70 -134 2 -5 -42 -8 -97 -8 l-102 0 -33 73 -34 72
-32 -72 -33 -73 -104 0 -105 0 25 43 c13 23 45 83 72 133 l47 92 -61 115 c-33
63 -61 120 -61 126 0 7 31 11 94 11 l93 0 33 -75z m-660 -1245 l0 -370 -95 0
-95 0 0 370 0 370 95 0 95 0 0 -370z m274 339 c35 -41 34 -83 -3 -120 -63 -63
-171 -24 -171 61 0 56 38 90 100 90 42 0 52 -4 74 -31z m596 -339 l0 -370 -90
0 c-86 0 -90 1 -90 22 l0 21 -24 -22 c-57 -53 -147 -47 -216 15 -57 52 -75
108 -75 234 0 90 3 112 24 153 35 71 79 100 158 105 55 4 69 1 94 -17 l29 -22
0 126 0 125 95 0 95 0 0 -370z m-1190 319 c78 -33 79 -39 22 -107 -44 -54 -50
-58 -68 -45 -39 29 -88 36 -122 19 -26 -14 -32 -23 -32 -50 0 -40 14 -53 106
-99 112 -56 162 -130 151 -223 -19 -175 -224 -256 -414 -163 -35 17 -63 35
-63 40 0 14 82 119 93 119 4 0 19 -7 32 -16 54 -35 135 -35 157 -1 14 21 8 64
-9 79 -10 9 -50 32 -89 51 -122 61 -168 136 -149 246 24 145 220 221 385 150z
m1587 -164 c95 -28 153 -126 153 -257 l0 -58 -145 0 c-139 0 -145 -1 -145 -20
0 -27 43 -70 71 -70 12 0 33 13 48 29 l26 29 68 -34 c37 -19 67 -37 67 -39 0
-3 -19 -26 -41 -50 -89 -97 -257 -99 -349 -4 -50 52 -70 112 -70 213 0 100 27
165 90 218 65 56 137 70 227 43z m-977 -265 l0 -260 -90 0 -90 0 0 260 0 260
90 0 90 0 0 -260z m-220 -1055 l0 -375 -95 0 -95 0 0 375 0 375 95 0 95 0 0
-375z m-365 294 c73 -37 109 -99 109 -188 -1 -143 -99 -231 -261 -231 l-53 0
0 -125 0 -125 -90 0 -90 0 0 351 0 351 168 -4 c157 -3 171 -5 217 -29z m780
-148 c83 -37 135 -133 135 -248 l0 -53 -149 0 -148 0 4 -24 c13 -65 94 -90
130 -40 l19 26 67 -33 c37 -18 67 -36 67 -39 0 -3 -13 -22 -30 -42 -88 -107
-276 -109 -368 -4 -39 44 -50 71 -62 143 -18 109 23 235 91 284 71 50 172 63
244 30z m465 8 c31 -7 65 -23 86 -41 53 -47 64 -100 64 -310 l0 -178 -80 0
c-75 0 -80 1 -80 22 0 21 0 21 -26 -3 -22 -20 -35 -24 -93 -24 -58 0 -73 4
-103 27 -43 33 -62 83 -56 148 9 92 82 148 204 158 53 4 64 8 64 23 0 23 -37
49 -70 49 -14 0 -43 -9 -64 -21 l-39 -21 -38 44 c-21 24 -38 46 -39 50 0 11
61 53 95 66 65 24 104 26 175 11z m539 -10 c21 -6 50 -21 65 -33 l26 -21 -45
-47 -45 -47 -46 21 c-56 24 -98 13 -92 -24 2 -17 17 -27 65 -43 79 -28 109
-48 130 -88 40 -77 5 -184 -74 -223 -61 -31 -191 -27 -265 8 -32 15 -58 31
-58 35 0 5 19 31 43 58 l43 49 36 -22 c42 -26 100 -29 119 -6 21 25 -1 46 -80
75 -39 15 -78 33 -87 40 -48 40 -59 143 -21 199 53 80 162 106 286 69z m445 9
c89 -27 146 -124 146 -250 l0 -58 -145 0 c-137 0 -145 -1 -145 -19 0 -11 10
-32 23 -47 31 -35 73 -36 104 0 l22 26 66 -32 c36 -18 65 -36 65 -40 0 -17
-66 -81 -103 -100 -81 -41 -215 -22 -280 40 -58 54 -72 97 -72 212 0 89 3 111
22 145 60 112 175 159 297 123z"/>
<path d="M2166 4028 c-13 -13 -27 -33 -31 -45 -6 -22 -4 -23 54 -23 58 0 61 1
61 25 0 25 -31 65 -49 65 -6 0 -21 -10 -35 -22z"/>
<path d="M2604 2853 c-37 -26 -52 -147 -25 -211 14 -33 47 -50 76 -38 43 16
60 152 27 216 -17 35 -53 50 -78 33z"/>
<path d="M3161 2854 c-12 -15 -21 -35 -21 -45 0 -16 8 -19 60 -19 63 0 66 3
49 47 -19 50 -56 57 -88 17z"/>
<path d="M1510 1775 l0 -85 35 0 c72 0 114 46 100 110 -8 36 -47 60 -100 60
l-35 0 0 -85z"/>
<path d="M2356 1688 c-32 -45 -22 -58 44 -58 33 0 60 2 60 5 0 3 -7 21 -14 40
-12 29 -20 35 -45 35 -20 0 -35 -8 -45 -22z"/>
<path d="M2847 1502 c-20 -22 -22 -63 -5 -80 7 -7 24 -12 40 -12 31 0 54 28
64 78 l7 32 -45 0 c-31 0 -50 -6 -61 -18z"/>
<path d="M3821 1684 c-35 -45 -28 -54 40 -54 l61 0 -7 27 c-4 16 -11 34 -17
40 -17 21 -55 15 -77 -13z"/>
</g>
</svg>
